<svg width="64" height="64" viewBox="0 0 64 64" fill="none" xmlns="http://www.w3.org/2000/svg">
<circle cx="32" cy="32" r="29.5" fill="white" fill-opacity="0.5" stroke="url(#paint0_linear_1401_14458)" stroke-width="5"/>
<g filter="url(#filter0_d_1401_14458)">
<path fill-rule="evenodd" clip-rule="evenodd" d="M30.1791 42.5381H35.3819C39.0357 42.5381 40.8632 42.5381 42.1756 41.6776C42.742 41.3066 43.2298 40.8276 43.6109 40.268C44.4878 38.9802 44.4878 37.1855 44.4878 33.5984C44.4878 30.0112 44.4878 28.2165 43.6109 26.9287C43.2298 26.3691 42.742 25.8901 42.1756 25.5191C41.3327 24.9654 40.2767 24.7675 38.6599 24.6973C37.8884 24.6973 37.2246 24.1236 37.0736 23.3802C36.9582 22.8357 36.6583 22.3477 36.2246 21.9987C35.791 21.6497 35.2501 21.4612 34.6935 21.4649H30.8675C29.7108 21.4649 28.7145 22.2668 28.4874 23.3802C28.3364 24.1236 27.6726 24.6973 26.9011 24.6973C25.2855 24.7675 24.2295 24.9666 23.3854 25.5191C22.8194 25.8902 22.332 26.3692 21.9512 26.9287C21.0732 28.2165 21.0732 30.0101 21.0732 33.5984C21.0732 37.1867 21.0732 38.979 21.9501 40.268C22.3294 40.8253 22.8164 41.3041 23.3854 41.6776C24.6978 42.5381 26.5253 42.5381 30.1791 42.5381ZM32.7805 28.8089C30.0866 28.8089 27.9021 30.9525 27.9021 33.5972C27.9021 36.2419 30.0878 38.389 32.7805 38.389C35.4732 38.389 37.6589 36.2442 37.6589 33.5995C37.6589 30.9549 35.4732 28.8089 32.7805 28.8089ZM32.7805 30.7242C31.1649 30.7242 29.8537 32.0109 29.8537 33.5984C29.8537 35.1847 31.1649 36.4713 32.7805 36.4713C34.3961 36.4713 35.7073 35.1847 35.7073 33.5984C35.7073 32.012 34.3961 30.7242 32.7805 30.7242ZM38.3087 29.7666C38.3087 29.2374 38.7454 28.8089 39.2851 28.8089H40.5846C41.1231 28.8089 41.561 29.2374 41.561 29.7666C41.5585 30.0228 41.4544 30.2676 41.2716 30.4472C41.0887 30.6268 40.842 30.7264 40.5858 30.7242H39.2851C39.1581 30.7255 39.0321 30.7017 38.9143 30.6542C38.7965 30.6067 38.6892 30.5365 38.5985 30.4476C38.5079 30.3587 38.4356 30.2528 38.3859 30.1359C38.3361 30.0191 38.3099 29.8935 38.3087 29.7666Z" fill="white"/>
</g>
<defs>
<filter id="filter0_d_1401_14458" x="17.1707" y="19.1234" width="31.2195" height="28.8791" filterUnits="userSpaceOnUse" color-interpolation-filters="sRGB">
<feFlood flood-opacity="0" result="BackgroundImageFix"/>
<feColorMatrix in="SourceAlpha" type="matrix" values="0 0 0 0 0 0 0 0 0 0 0 0 0 0 0 0 0 0 127 0" result="hardAlpha"/>
<feOffset dy="1.56098"/>
<feGaussianBlur stdDeviation="1.95122"/>
<feComposite in2="hardAlpha" operator="out"/>
<feColorMatrix type="matrix" values="0 0 0 0 0 0 0 0 0 0 0 0 0 0 0 0 0 0 0.35 0"/>
<feBlend mode="normal" in2="BackgroundImageFix" result="effect1_dropShadow_1401_14458"/>
<feBlend mode="normal" in="SourceGraphic" in2="effect1_dropShadow_1401_14458" result="shape"/>
</filter>
<linearGradient id="paint0_linear_1401_14458" x1="64" y1="-1.90735e-06" x2="1.90735e-06" y2="64" gradientUnits="userSpaceOnUse">
<stop offset="0.5" stop-color="#B79365"/>
<stop offset="0.595" stop-color="#F8D495"/>
<stop offset="0.655" stop-color="#FFFBBC"/>
<stop offset="0.7" stop-color="#FFFFEC"/>
<stop offset="0.75" stop-color="#FFFBBC"/>
<stop offset="0.8" stop-color="#F8D495"/>
<stop offset="0.9" stop-color="#A7855B"/>
</linearGradient>
</defs>
</svg>
