<svg width="328" height="73" viewBox="0 0 328 73" fill="none" xmlns="http://www.w3.org/2000/svg">
<g filter="url(#filter0_d_811_13036)">
<path d="M24.5598 15.7583C34.2582 15.7583 38.7471 20.9677 38.7471 28.1722C38.7471 35.3767 34.2028 41.4728 26.3333 41.4728L18.3529 41.4728L18.3529 53L7.71242 53L7.71242 15.7583L24.5598 15.7583ZM23.5623 32.6058C26.0562 32.6058 28.1067 31.3865 28.1067 28.6156C28.1067 25.9 26.0562 24.6254 23.5623 24.6254L18.3529 24.6254L18.3529 32.6058L23.5623 32.6058ZM61.9115 15.7583L77.318 53L66.5113 53L64.1282 46.7931L49.7193 46.7931L47.3362 53L36.5295 53L51.936 15.7583L61.9115 15.7583ZM52.8227 38.8127L61.0248 38.8127L56.9237 28.1722L52.8227 38.8127ZM90.6034 43.2462L104.791 43.2462L104.791 53L79.963 53L79.963 15.7583L90.6034 15.7583L90.6034 43.2462ZM103.464 15.7583L133.612 15.7583L133.612 25.5121L123.858 25.5121L123.858 53L113.217 53L113.217 25.5121L103.464 25.5121L103.464 15.7583ZM155.431 15.7583L170.838 53L160.031 53L157.648 46.7931L143.239 46.7931L140.856 53L130.049 53L145.456 15.7583L155.431 15.7583ZM146.343 38.8127L154.545 38.8127L150.444 28.1722L146.343 38.8127ZM198.311 15.7583L208.951 15.7583L208.951 53L198.311 53L184.123 32.6057L184.123 53L173.483 53L173.483 15.7583L184.123 15.7583L198.311 36.1526L198.311 15.7583ZM247.968 15.7583C257.667 15.7583 262.156 20.9677 262.156 28.1722C262.156 35.3767 257.611 41.4728 249.742 41.4728L241.761 41.4728L241.761 53L231.121 53L231.121 15.7583L247.968 15.7583ZM246.971 32.6057C249.465 32.6057 251.515 31.3865 251.515 28.6156C251.515 25.9 249.465 24.6254 246.971 24.6254L241.761 24.6254L241.761 32.6057L246.971 32.6057ZM276.344 53L265.704 53L265.704 15.7583L276.344 15.7583L276.344 53ZM307.141 33.4925L319.777 53L307.252 53L299.826 41.2511L292.4 53L279.875 53L292.51 33.4925L280.817 15.7583L293.342 15.7583L299.826 26.1771L306.31 15.7583L318.835 15.7583L307.141 33.4925Z" fill="white"/>
</g>
<g filter="url(#filter1_f_811_13036)">
<path d="M103.766 65.4595L97.8119 65.7612L103.59 66.7678L110.002 66.6085L103.766 65.4595Z" fill="url(#paint0_radial_811_13036)"/>
</g>
<g filter="url(#filter2_f_811_13036)">
<path d="M103.487 66.2768L103.735 71.7374L104.853 66.4097L104.525 60.3693L103.487 66.2768Z" fill="url(#paint1_radial_811_13036)"/>
</g>
<g filter="url(#filter3_f_811_13036)">
<path d="M7.70656 29.6235L1.75205 29.9253L7.53067 30.9319L13.9418 30.7726L7.70656 29.6235Z" fill="url(#paint2_radial_811_13036)"/>
</g>
<g filter="url(#filter4_f_811_13036)">
<path d="M7.42677 30.4408L7.67535 35.9014L8.79286 30.5738L8.46553 24.5334L7.42677 30.4408Z" fill="url(#paint3_radial_811_13036)"/>
</g>
<g filter="url(#filter5_f_811_13036)">
<path d="M305.741 29.6515L300.958 33.2106L306.322 30.8371L311.564 27.1429L305.741 29.6515Z" fill="url(#paint4_radial_811_13036)"/>
</g>
<g filter="url(#filter6_f_811_13036)">
<path d="M305.961 30.4874L309.201 34.8897L307.17 29.839L303.542 24.9984L305.961 30.4874Z" fill="url(#paint5_radial_811_13036)"/>
</g>
<g filter="url(#filter7_f_811_13036)">
<path d="M230.796 29.2826L224.913 30.2526L230.768 30.6024L237.121 29.7227L230.796 29.2826Z" fill="url(#paint6_radial_811_13036)"/>
</g>
<g filter="url(#filter8_f_811_13036)">
<path d="M230.609 30.1266L231.471 35.5245L231.982 30.1049L230.977 24.1398L230.609 30.1266Z" fill="url(#paint7_radial_811_13036)"/>
</g>
<g filter="url(#filter9_f_811_13036)">
<path d="M275.5 65.4818L269.618 66.4518L275.473 66.8016L281.825 65.9219L275.5 65.4818Z" fill="url(#paint8_radial_811_13036)"/>
</g>
<g filter="url(#filter10_f_811_13036)">
<path d="M275.314 66.3258L276.176 71.7237L276.687 66.3041L275.682 60.339L275.314 66.3258Z" fill="url(#paint9_radial_811_13036)"/>
</g>
<g filter="url(#filter11_f_811_13036)">
<path d="M182.053 61.0539L176.143 61.8458L181.985 62.3723L188.362 61.6848L182.053 61.0539Z" fill="url(#paint10_radial_811_13036)"/>
</g>
<g filter="url(#filter12_f_811_13036)">
<path d="M181.842 61.8891L182.54 67.3106L183.214 61.9089L182.39 55.9161L181.842 61.8891Z" fill="url(#paint11_radial_811_13036)"/>
</g>
<g filter="url(#filter13_f_811_13036)">
<path d="M145.106 29.2844L139.197 30.0763L145.039 30.6028L151.415 29.9153L145.106 29.2844Z" fill="url(#paint12_radial_811_13036)"/>
</g>
<g filter="url(#filter14_f_811_13036)">
<path d="M144.895 30.1196L145.594 35.5411L146.268 30.1394L145.443 24.1466L144.895 30.1196Z" fill="url(#paint13_radial_811_13036)"/>
</g>
<g filter="url(#filter15_f_811_13036)">
<path d="M209.163 66.0373L212.283 60.9572L208.183 65.1519L204.687 70.5279L209.163 66.0373Z" fill="url(#paint14_radial_811_13036)"/>
</g>
<g filter="url(#filter16_f_811_13036)">
<path d="M208.65 65.3482L204.007 62.463L207.767 66.3993L212.932 69.5477L208.65 65.3482Z" fill="url(#paint15_radial_811_13036)"/>
</g>
<defs>
<filter id="filter0_d_811_13036" x="0.323185" y="8.3686" width="326.843" height="52.0206" filterUnits="userSpaceOnUse" color-interpolation-filters="sRGB">
<feFlood flood-opacity="0" result="BackgroundImageFix"/>
<feColorMatrix in="SourceAlpha" type="matrix" values="0 0 0 0 0 0 0 0 0 0 0 0 0 0 0 0 0 0 127 0" result="hardAlpha"/>
<feOffset/>
<feGaussianBlur stdDeviation="3.69461"/>
<feComposite in2="hardAlpha" operator="out"/>
<feColorMatrix type="matrix" values="0 0 0 0 1 0 0 0 0 1 0 0 0 0 1 0 0 0 0.7 0"/>
<feBlend mode="normal" in2="BackgroundImageFix" result="effect1_dropShadow_811_13036"/>
<feBlend mode="normal" in="SourceGraphic" in2="effect1_dropShadow_811_13036" result="shape"/>
</filter>
<filter id="filter1_f_811_13036" x="97.191" y="64.8401" width="13.4315" height="2.55018" filterUnits="userSpaceOnUse" color-interpolation-filters="sRGB">
<feFlood flood-opacity="0" result="BackgroundImageFix"/>
<feBlend mode="normal" in="SourceGraphic" in2="BackgroundImageFix" result="shape"/>
<feGaussianBlur stdDeviation="0.310396" result="effect1_foregroundBlur_811_13036"/>
</filter>
<filter id="filter2_f_811_13036" x="102.866" y="59.7503" width="2.6078" height="12.6088" filterUnits="userSpaceOnUse" color-interpolation-filters="sRGB">
<feFlood flood-opacity="0" result="BackgroundImageFix"/>
<feBlend mode="normal" in="SourceGraphic" in2="BackgroundImageFix" result="shape"/>
<feGaussianBlur stdDeviation="0.310396" result="effect1_foregroundBlur_811_13036"/>
</filter>
<filter id="filter3_f_811_13036" x="1.13116" y="29.0042" width="13.4315" height="2.55018" filterUnits="userSpaceOnUse" color-interpolation-filters="sRGB">
<feFlood flood-opacity="0" result="BackgroundImageFix"/>
<feBlend mode="normal" in="SourceGraphic" in2="BackgroundImageFix" result="shape"/>
<feGaussianBlur stdDeviation="0.310396" result="effect1_foregroundBlur_811_13036"/>
</filter>
<filter id="filter4_f_811_13036" x="6.80597" y="23.9144" width="2.6078" height="12.6088" filterUnits="userSpaceOnUse" color-interpolation-filters="sRGB">
<feFlood flood-opacity="0" result="BackgroundImageFix"/>
<feBlend mode="normal" in="SourceGraphic" in2="BackgroundImageFix" result="shape"/>
<feGaussianBlur stdDeviation="0.310396" result="effect1_foregroundBlur_811_13036"/>
</filter>
<filter id="filter5_f_811_13036" x="300.337" y="26.5237" width="11.8478" height="7.30799" filterUnits="userSpaceOnUse" color-interpolation-filters="sRGB">
<feFlood flood-opacity="0" result="BackgroundImageFix"/>
<feBlend mode="normal" in="SourceGraphic" in2="BackgroundImageFix" result="shape"/>
<feGaussianBlur stdDeviation="0.310396" result="effect1_foregroundBlur_811_13036"/>
</filter>
<filter id="filter6_f_811_13036" x="302.922" y="24.3792" width="6.90028" height="11.1322" filterUnits="userSpaceOnUse" color-interpolation-filters="sRGB">
<feFlood flood-opacity="0" result="BackgroundImageFix"/>
<feBlend mode="normal" in="SourceGraphic" in2="BackgroundImageFix" result="shape"/>
<feGaussianBlur stdDeviation="0.310396" result="effect1_foregroundBlur_811_13036"/>
</filter>
<filter id="filter7_f_811_13036" x="224.292" y="28.6605" width="13.4492" height="2.5619" filterUnits="userSpaceOnUse" color-interpolation-filters="sRGB">
<feFlood flood-opacity="0" result="BackgroundImageFix"/>
<feBlend mode="normal" in="SourceGraphic" in2="BackgroundImageFix" result="shape"/>
<feGaussianBlur stdDeviation="0.310396" result="effect1_foregroundBlur_811_13036"/>
</filter>
<filter id="filter8_f_811_13036" x="229.989" y="23.5198" width="2.6139" height="12.6244" filterUnits="userSpaceOnUse" color-interpolation-filters="sRGB">
<feFlood flood-opacity="0" result="BackgroundImageFix"/>
<feBlend mode="normal" in="SourceGraphic" in2="BackgroundImageFix" result="shape"/>
<feGaussianBlur stdDeviation="0.310396" result="effect1_foregroundBlur_811_13036"/>
</filter>
<filter id="filter9_f_811_13036" x="268.997" y="64.8597" width="13.4492" height="2.5619" filterUnits="userSpaceOnUse" color-interpolation-filters="sRGB">
<feFlood flood-opacity="0" result="BackgroundImageFix"/>
<feBlend mode="normal" in="SourceGraphic" in2="BackgroundImageFix" result="shape"/>
<feGaussianBlur stdDeviation="0.310396" result="effect1_foregroundBlur_811_13036"/>
</filter>
<filter id="filter10_f_811_13036" x="274.693" y="59.7191" width="2.6139" height="12.6244" filterUnits="userSpaceOnUse" color-interpolation-filters="sRGB">
<feFlood flood-opacity="0" result="BackgroundImageFix"/>
<feBlend mode="normal" in="SourceGraphic" in2="BackgroundImageFix" result="shape"/>
<feGaussianBlur stdDeviation="0.310396" result="effect1_foregroundBlur_811_13036"/>
</filter>
<filter id="filter11_f_811_13036" x="175.523" y="60.4339" width="13.4597" height="2.55799" filterUnits="userSpaceOnUse" color-interpolation-filters="sRGB">
<feFlood flood-opacity="0" result="BackgroundImageFix"/>
<feBlend mode="normal" in="SourceGraphic" in2="BackgroundImageFix" result="shape"/>
<feGaussianBlur stdDeviation="0.310396" result="effect1_foregroundBlur_811_13036"/>
</filter>
<filter id="filter12_f_811_13036" x="181.221" y="55.2972" width="2.61402" height="12.6361" filterUnits="userSpaceOnUse" color-interpolation-filters="sRGB">
<feFlood flood-opacity="0" result="BackgroundImageFix"/>
<feBlend mode="normal" in="SourceGraphic" in2="BackgroundImageFix" result="shape"/>
<feGaussianBlur stdDeviation="0.310396" result="effect1_foregroundBlur_811_13036"/>
</filter>
<filter id="filter13_f_811_13036" x="138.576" y="28.6644" width="13.4598" height="2.55799" filterUnits="userSpaceOnUse" color-interpolation-filters="sRGB">
<feFlood flood-opacity="0" result="BackgroundImageFix"/>
<feBlend mode="normal" in="SourceGraphic" in2="BackgroundImageFix" result="shape"/>
<feGaussianBlur stdDeviation="0.310396" result="effect1_foregroundBlur_811_13036"/>
</filter>
<filter id="filter14_f_811_13036" x="144.275" y="23.5276" width="2.6139" height="12.6361" filterUnits="userSpaceOnUse" color-interpolation-filters="sRGB">
<feFlood flood-opacity="0" result="BackgroundImageFix"/>
<feBlend mode="normal" in="SourceGraphic" in2="BackgroundImageFix" result="shape"/>
<feGaussianBlur stdDeviation="0.310396" result="effect1_foregroundBlur_811_13036"/>
</filter>
<filter id="filter15_f_811_13036" x="204.066" y="60.3362" width="8.83839" height="10.8119" filterUnits="userSpaceOnUse" color-interpolation-filters="sRGB">
<feFlood flood-opacity="0" result="BackgroundImageFix"/>
<feBlend mode="normal" in="SourceGraphic" in2="BackgroundImageFix" result="shape"/>
<feGaussianBlur stdDeviation="0.310396" result="effect1_foregroundBlur_811_13036"/>
</filter>
<filter id="filter16_f_811_13036" x="203.386" y="61.8441" width="10.1671" height="8.32362" filterUnits="userSpaceOnUse" color-interpolation-filters="sRGB">
<feFlood flood-opacity="0" result="BackgroundImageFix"/>
<feBlend mode="normal" in="SourceGraphic" in2="BackgroundImageFix" result="shape"/>
<feGaussianBlur stdDeviation="0.310396" result="effect1_foregroundBlur_811_13036"/>
</filter>
<radialGradient id="paint0_radial_811_13036" cx="0" cy="0" r="1" gradientUnits="userSpaceOnUse" gradientTransform="translate(103.908 66.1704) rotate(3.97617) scale(6.1096 2.28322)">
<stop stop-color="white"/>
<stop offset="1" stop-color="white" stop-opacity="0"/>
</radialGradient>
<radialGradient id="paint1_radial_811_13036" cx="0" cy="0" r="1" gradientUnits="userSpaceOnUse" gradientTransform="translate(104.115 66.0525) rotate(-86.0238) scale(5.69773 2.28322)">
<stop stop-color="white"/>
<stop offset="1" stop-color="white" stop-opacity="0"/>
</radialGradient>
<radialGradient id="paint2_radial_811_13036" cx="0" cy="0" r="1" gradientUnits="userSpaceOnUse" gradientTransform="translate(7.84797 30.3345) rotate(3.97617) scale(6.1096 2.28322)">
<stop stop-color="white"/>
<stop offset="1" stop-color="white" stop-opacity="0"/>
</radialGradient>
<radialGradient id="paint3_radial_811_13036" cx="0" cy="0" r="1" gradientUnits="userSpaceOnUse" gradientTransform="translate(8.05566 30.2166) rotate(-86.0238) scale(5.69773 2.28322)">
<stop stop-color="white"/>
<stop offset="1" stop-color="white" stop-opacity="0"/>
</radialGradient>
<radialGradient id="paint4_radial_811_13036" cx="0" cy="0" r="1" gradientUnits="userSpaceOnUse" gradientTransform="translate(306.254 30.1641) rotate(-29.7732) scale(6.1096 2.28322)">
<stop stop-color="white"/>
<stop offset="1" stop-color="white" stop-opacity="0"/>
</radialGradient>
<radialGradient id="paint5_radial_811_13036" cx="0" cy="0" r="1" gradientUnits="userSpaceOnUse" gradientTransform="translate(306.359 29.9516) rotate(-119.773) scale(5.69773 2.28322)">
<stop stop-color="white"/>
<stop offset="1" stop-color="white" stop-opacity="0"/>
</radialGradient>
<radialGradient id="paint6_radial_811_13036" cx="0" cy="0" r="1" gradientUnits="userSpaceOnUse" gradientTransform="translate(231.016 29.9731) rotate(-2.48535) scale(6.1096 2.28322)">
<stop stop-color="white"/>
<stop offset="1" stop-color="white" stop-opacity="0"/>
</radialGradient>
<radialGradient id="paint7_radial_811_13036" cx="0" cy="0" r="1" gradientUnits="userSpaceOnUse" gradientTransform="translate(231.209 29.833) rotate(-92.4853) scale(5.69773 2.28322)">
<stop stop-color="white"/>
<stop offset="1" stop-color="white" stop-opacity="0"/>
</radialGradient>
<radialGradient id="paint8_radial_811_13036" cx="0" cy="0" r="1" gradientUnits="userSpaceOnUse" gradientTransform="translate(275.721 66.1723) rotate(-2.48535) scale(6.1096 2.28322)">
<stop stop-color="white"/>
<stop offset="1" stop-color="white" stop-opacity="0"/>
</radialGradient>
<radialGradient id="paint9_radial_811_13036" cx="0" cy="0" r="1" gradientUnits="userSpaceOnUse" gradientTransform="translate(275.914 66.0322) rotate(-92.4853) scale(5.69773 2.28322)">
<stop stop-color="white"/>
<stop offset="1" stop-color="white" stop-opacity="0"/>
</radialGradient>
<radialGradient id="paint10_radial_811_13036" cx="0" cy="0" r="1" gradientUnits="userSpaceOnUse" gradientTransform="translate(182.252 61.7508) rotate(-0.754753) scale(6.1096 2.28322)">
<stop stop-color="white"/>
<stop offset="1" stop-color="white" stop-opacity="0"/>
</radialGradient>
<radialGradient id="paint11_radial_811_13036" cx="0" cy="0" r="1" gradientUnits="userSpaceOnUse" gradientTransform="translate(182.45 61.6137) rotate(-90.7548) scale(5.69773 2.28322)">
<stop stop-color="white"/>
<stop offset="1" stop-color="white" stop-opacity="0"/>
</radialGradient>
<radialGradient id="paint12_radial_811_13036" cx="0" cy="0" r="1" gradientUnits="userSpaceOnUse" gradientTransform="translate(145.306 29.9812) rotate(-0.754753) scale(6.1096 2.28322)">
<stop stop-color="white"/>
<stop offset="1" stop-color="white" stop-opacity="0"/>
</radialGradient>
<radialGradient id="paint13_radial_811_13036" cx="0" cy="0" r="1" gradientUnits="userSpaceOnUse" gradientTransform="translate(145.504 29.8442) rotate(-90.7548) scale(5.69773 2.28322)">
<stop stop-color="white"/>
<stop offset="1" stop-color="white" stop-opacity="0"/>
</radialGradient>
<radialGradient id="paint14_radial_811_13036" cx="0" cy="0" r="1" gradientUnits="userSpaceOnUse" gradientTransform="translate(208.496 65.7516) rotate(128.441) scale(6.1096 2.28322)">
<stop stop-color="white"/>
<stop offset="1" stop-color="white" stop-opacity="0"/>
</radialGradient>
<radialGradient id="paint15_radial_811_13036" cx="0" cy="0" r="1" gradientUnits="userSpaceOnUse" gradientTransform="translate(208.479 65.9937) rotate(38.4409) scale(5.69773 2.28322)">
<stop stop-color="white"/>
<stop offset="1" stop-color="white" stop-opacity="0"/>
</radialGradient>
</defs>
</svg>
