<svg width="279" height="132" viewBox="0 0 279 132" fill="none" xmlns="http://www.w3.org/2000/svg">
<g filter="url(#filter0_d_28_46374)">
<path d="M48.0348 56.4836L60.782 73.9435H43.4767L32.7381 57.8742H29.8796V73.9435H15.0464V22.0274H38.5323C52.0521 22.0274 58.3098 29.2894 58.3098 39.3327C58.3098 46.9811 54.6015 53.7024 48.0348 56.4836ZM37.1417 45.5132C40.6182 45.5132 43.4767 43.8136 43.4767 39.9508C43.4767 36.1652 40.6182 34.3883 37.1417 34.3883H29.8796V45.5132H37.1417ZM100.96 35.6244H81.1825V41.8049H97.2517V54.1659H81.1825V60.3464H100.96V73.9435H66.3493V22.0274H100.96V35.6244ZM138.811 22.0274L160.289 73.9435H145.224L141.902 65.2908H121.815L118.493 73.9435H103.428L124.905 22.0274H138.811ZM126.141 54.1659H137.575L131.858 39.3327L126.141 54.1659ZM184.912 22.0274C202.758 22.0274 212.184 33.6158 212.184 47.9854C212.184 62.3551 202.295 73.9435 184.912 73.9435H163.976V22.0274H184.912ZM186.225 60.3464C191.324 60.3464 197.35 54.784 197.35 47.9854C197.35 41.1869 191.324 35.6244 186.225 35.6244H178.809V60.3464H186.225ZM247.417 22.0274H264.723L244.945 52.9298V73.9435H230.112V52.9298L210.334 22.0274H227.64L237.528 38.0966L247.417 22.0274Z" fill="white"/>
</g>
<g filter="url(#filter1_d_28_46374)">
<path d="M3.26755 102.757H18.3647V106.783H12.8291V123.893H8.80316V106.783H3.26755V102.757ZM30.4335 102.253C36.5353 102.253 41.5048 107.223 41.5048 113.325C41.5048 119.426 36.5353 124.396 30.4335 124.396C24.3318 124.396 19.3623 119.426 19.3623 113.325C19.3623 107.223 24.3318 102.253 30.4335 102.253ZM30.4335 120.37C34.3336 120.37 37.4789 117.225 37.4789 113.325C37.4789 109.425 34.3336 106.279 30.4335 106.279C26.5334 106.279 23.3882 109.425 23.3882 113.325C23.3882 117.225 26.5334 120.37 30.4335 120.37ZM53.0569 102.757H68.154V106.783H62.6184V123.893H58.5925V106.783H53.0569V102.757ZM83.2469 123.893L81.6743 119.867H72.7418L71.1692 123.893H66.6401L75.3838 102.757H79.0323L87.7761 123.893H83.2469ZM74.283 115.841H80.1331L77.2081 108.292L74.283 115.841ZM97.3336 112.853L106.895 123.893H101.8L93.811 114.646V123.893H89.7851V102.757H93.811V111.5L101.297 102.757H106.392L97.3336 112.853ZM122.251 106.783H113.192V111.312H120.741V115.338H113.192V119.867H122.251V123.893H109.166V102.757H122.251V106.783ZM149.93 123.893L148.357 119.867H139.424L137.852 123.893H133.323L142.066 102.757H145.715L154.459 123.893H149.93ZM140.966 115.841H146.816L143.891 108.292L140.966 115.841ZM174.072 111.06C178.695 111.815 182.124 113.073 182.124 117.602C182.124 121.377 179.23 124.396 173.632 124.396C168.222 124.396 165.391 121.251 165.014 120.873L167.027 117.351C168.882 119.458 171.682 120.37 173.695 120.37C176.494 120.37 178.098 119.332 178.098 117.854C178.098 116.376 176.588 115.621 173.82 115.212C167.813 114.3 165.769 112.067 165.769 108.858C165.769 105.336 168.631 102.253 173.883 102.253C174.827 102.253 178.035 102.316 181.117 104.833L179.419 108.292C178.947 107.883 176.871 106.279 173.82 106.279C171.682 106.279 169.794 106.877 169.794 108.575C169.794 110.022 171.021 110.557 174.072 111.06ZM198.24 106.783H189.182V111.312H196.73V115.338H189.182V119.867H198.24V123.893H185.156V102.757H198.24V106.783ZM205.799 119.867H214.354V123.893H201.773V102.757H205.799V119.867ZM221.402 123.893H217.376V102.757H230.46V106.783H221.402V111.312H228.95V115.338H221.402V123.893ZM237.497 123.893H233.471V102.757H237.497V123.893ZM254.602 106.783H245.544V111.312H253.093V115.338H245.544V119.867H254.602V123.893H241.518V102.757H254.602V106.783ZM264.174 102.253C269.175 102.253 271.219 105.556 271.219 108.292C271.219 110.557 270.464 112.255 268.2 114.017C267.225 114.772 265.967 115.872 265.935 117.854H262.412C262.35 116.816 262.318 114.551 263.922 112.916C265.369 111.469 267.193 110.525 267.193 108.733C267.193 106.814 265.652 106.279 264.205 106.279C262.318 106.279 260.746 107.129 259.645 108.544L257.632 105.273C259.204 103.606 261.343 102.253 264.174 102.253ZM264.174 119.364C265.589 119.364 266.69 120.464 266.69 121.88C266.69 123.295 265.589 124.396 264.174 124.396C262.758 124.396 261.658 123.295 261.658 121.88C261.658 120.464 262.758 119.364 264.174 119.364Z" fill="white"/>
</g>
<defs>
<filter id="filter0_d_28_46374" x="1.43711" y="8.41758" width="276.895" height="79.1357" filterUnits="userSpaceOnUse" color-interpolation-filters="sRGB">
<feFlood flood-opacity="0" result="BackgroundImageFix"/>
<feColorMatrix in="SourceAlpha" type="matrix" values="0 0 0 0 0 0 0 0 0 0 0 0 0 0 0 0 0 0 127 0" result="hardAlpha"/>
<feOffset/>
<feGaussianBlur stdDeviation="6.80488"/>
<feComposite in2="hardAlpha" operator="out"/>
<feColorMatrix type="matrix" values="0 0 0 0 1 0 0 0 0 1 0 0 0 0 1 0 0 0 0.5 0"/>
<feBlend mode="normal" in2="BackgroundImageFix" result="effect1_dropShadow_28_46374"/>
<feBlend mode="normal" in="SourceGraphic" in2="effect1_dropShadow_28_46374" result="shape"/>
</filter>
<filter id="filter1_d_28_46374" x="0.853324" y="102.254" width="270.365" height="24.5567" filterUnits="userSpaceOnUse" color-interpolation-filters="sRGB">
<feFlood flood-opacity="0" result="BackgroundImageFix"/>
<feColorMatrix in="SourceAlpha" type="matrix" values="0 0 0 0 0 0 0 0 0 0 0 0 0 0 0 0 0 0 127 0" result="hardAlpha"/>
<feOffset dx="-2.41425" dy="2.41425"/>
<feComposite in2="hardAlpha" operator="out"/>
<feColorMatrix type="matrix" values="0 0 0 0 0 0 0 0 0 0.231373 0 0 0 0 0.478431 0 0 0 1 0"/>
<feBlend mode="normal" in2="BackgroundImageFix" result="effect1_dropShadow_28_46374"/>
<feBlend mode="normal" in="SourceGraphic" in2="effect1_dropShadow_28_46374" result="shape"/>
</filter>
</defs>
</svg>
